<?xml version="1.0" standalone="no"?>
<!DOCTYPE svg PUBLIC "-//W3C//DTD SVG 20010904//EN" "http://www.w3.org/TR/2001/REC-SVG-20010904/DTD/svg10.dtd">
<svg version="1.0" xmlns="http://www.w3.org/2000/svg" width="6000.000000pt" height="4002.000000pt" viewBox="0 0 6000.000000 4002.000000" preserveAspectRatio="xMidYMid meet">

<g transform="translate(0.000000,4002.000000) scale(0.100000,-0.100000)"
fill="#000000" stroke="none">
<path d="M2 24783 l3 -15236 880 -562 880 -562 830 -355 c872 -374 1114 -475
1540 -643 1318 -520 2745 -986 4120 -1344 163 -43 641 -147 1210 -265 517
-107 1548 -321 2291 -475 l1351 -280 1314 -166 c723 -91 1868 -240 2544 -330
1139 -152 1273 -168 1810 -215 776 -68 1694 -155 2520 -241 l680 -70 680 -10
c1368 -19 2798 -39 3095 -44 200 -3 295 -1 275 5 -16 5 -109 23 -205 40 -559
99 -1137 246 -1635 416 -137 47 -365 124 -505 171 l-255 86 -630 390 -630 389
-170 167 c-93 92 -255 243 -359 336 l-189 170 -199 366 c-158 292 -201 379
-214 435 -11 49 -17 148 -20 339 -4 190 -12 319 -26 435 -26 196 -30 592 -9
780 59 533 202 964 401 1215 84 106 428 377 735 580 511 338 1087 599 1611
729 269 67 453 98 984 166 217 28 466 62 553 75 159 25 159 25 947 25 1132 0
2396 -36 3003 -85 l427 -35 315 -120 316 -120 476 2 476 3 -355 272 c-195 150
-362 281 -370 290 -8 10 -88 132 -177 272 -132 205 -202 303 -372 512 l-209
258 -149 309 c-136 282 -160 326 -277 493 -110 158 -137 205 -191 331 -114
267 -220 588 -323 977 -43 160 -56 236 -95 541 l-47 355 5 405 c6 515 27 677
128 985 189 574 569 1010 1241 1424 291 179 872 482 1158 604 203 87 724 287
1157 446 l303 111 652 55 652 56 838 149 838 150 682 0 c1092 0 1637 -26 2140
-100 75 -11 513 -47 974 -80 l839 -60 220 -61 c644 -178 1481 -471 2110 -738
223 -95 707 -334 915 -453 91 -52 224 -125 295 -163 251 -131 356 -214 442
-347 l44 -68 63 0 c119 0 360 52 806 175 267 74 376 99 551 129 354 61 579 76
1289 86 640 9 703 14 858 66 44 14 94 38 111 53 17 14 147 184 289 376 l259
350 -70 74 c-95 101 -126 171 -182 410 -37 159 -43 197 -33 209 34 41 268 167
437 236 l64 26 583 0 582 0 78 -106 c77 -106 78 -107 234 -209 l157 -103 524
-5 c613 -6 779 -21 1024 -92 l85 -25 172 114 c157 103 187 128 328 270 l155
156 92 0 92 0 116 355 c64 195 120 357 125 360 5 3 125 -86 267 -197 l258
-204 188 -234 c799 -995 1217 -1646 1512 -2355 102 -246 112 -279 210 -744 52
-245 105 -493 119 -551 140 -595 189 -1367 122 -1911 -21 -168 -170 -1005
-216 -1209 -72 -323 -94 -386 -260 -730 -84 -173 -188 -396 -232 -495 -114
-257 -322 -675 -420 -845 -51 -88 -159 -245 -276 -403 -119 -159 -187 -259
-180 -262 7 -3 274 -101 593 -219 613 -226 652 -239 1777 -585 839 -259 1162
-361 1613 -513 410 -138 1186 -440 1813 -705 l32 -13 0 15710 0 15710 -30000
0 -30000 0 2 -15237z"/>
</g>
</svg>
