<?xml version="1.0" standalone="no"?>
<!DOCTYPE svg PUBLIC "-//W3C//DTD SVG 20010904//EN"
 "http://www.w3.org/TR/2001/REC-SVG-20010904/DTD/svg10.dtd">
<svg version="1.0" xmlns="http://www.w3.org/2000/svg"
 width="3968.000000pt" height="2232.000000pt" viewBox="0 0 3968.000000 2232.000000"
 preserveAspectRatio="xMidYMid meet">

<g transform="translate(0.000000,2232.000000) scale(0.100000,-0.100000)"
fill="#000000" stroke="none">
<path d="M0 14130 l0 -8190 23 -4 c12 -2 596 -17 1297 -32 l1275 -27 48 -45
47 -46 388 -28 c346 -24 445 -27 931 -27 l544 -1 138 45 138 45 1287 0 1288 0
219 86 c142 56 232 97 253 117 32 27 34 33 34 91 0 106 -116 96 1096 94 l1058
-3 16 -43 c10 -25 41 -68 78 -105 56 -56 72 -66 145 -90 118 -38 227 -38 323
1 66 27 71 32 115 103 l46 74 304 11 c167 7 364 12 438 13 l134 1 53 -40 c46
-35 60 -40 104 -40 41 0 60 6 96 30 24 17 44 37 44 45 0 13 128 15 962 15
l962 0 85 28 c84 27 85 27 162 117 68 80 87 95 164 134 86 43 89 44 137 32 27
-6 56 -11 64 -11 12 0 14 57 14 373 0 295 6 476 30 872 42 710 42 1023 -1
1467 -18 180 -30 331 -26 334 3 4 126 19 273 35 146 15 268 30 270 32 2 2 -67
29 -153 61 l-158 56 -284 0 -284 0 -166 46 c-91 25 -166 46 -167 47 -12 17
-24 50 -20 54 3 4 97 26 208 50 111 24 205 47 208 52 3 4 51 80 108 168 89
140 102 166 102 204 0 39 5 49 57 101 l57 58 -117 0 -117 0 0 45 c0 25 3 45 8
45 4 0 664 34 1467 75 l1460 75 2095 -30 2095 -30 1400 -91 c1011 -65 1401
-93 1406 -102 4 -7 104 -160 223 -342 166 -254 213 -332 203 -341 -7 -6 -73
-47 -147 -92 -90 -53 -160 -87 -210 -102 -153 -44 -134 -24 -169 -165 l-31
-124 0 -903 c0 -589 6 -1047 15 -1318 8 -228 15 -446 15 -484 0 -66 1 -68 23
-62 78 22 64 43 147 -224 74 -238 75 -242 120 -284 44 -41 48 -42 148 -55
l103 -13 44 -58 c24 -31 56 -88 71 -126 15 -38 33 -74 40 -80 8 -6 128 -16
296 -23 270 -12 300 -15 643 -72 198 -33 493 -76 655 -94 230 -27 352 -47 555
-90 l260 -56 720 -44 c396 -25 737 -45 758 -45 l37 0 0 85 c0 95 -4 91 79 74
51 -10 63 -8 141 18 l84 30 101 -30 c92 -27 105 -28 161 -18 94 17 97 16 140
-44 l39 -55 120 0 c75 0 141 6 175 15 38 10 108 15 225 15 109 1 193 6 235 15
44 10 135 15 280 16 l215 1 -112 37 c-61 20 -115 39 -119 44 -4 4 341 7 767 7
629 0 792 3 869 15 67 10 181 15 383 15 l288 0 177 44 177 44 765 16 c435 9
1136 16 1625 16 839 0 900 -1 2455 -55 877 -30 1603 -55 1613 -55 16 0 17 406
17 8395 l0 8395 -19840 0 -19840 0 0 -8190z"/>
</g>
</svg>
